<svg xmlns="http://www.w3.org/2000/svg" xmlns:xlink="http://www.w3.org/1999/xlink" version="1.1" id="Layer_1" x="0px" y="0px" viewBox="0 0 40 40" style="enable-background:new 0 0 40 40;" xml:space="preserve" width="40"  height="40" ><script xmlns="http://www.w3.org/1999/xhtml" src="chrome-extension://fgddmllnllkalaagkghckoinaemmogpe/scripts/content/gps.js"></script>
<g>
	<polygon style="fill:#B6DCFE;" points="1.606,30.166 37.224,16.793 38.364,20.01 2.747,33.383  "/>
	<path style="fill:#4788C7;" d="M36.922,17.44l0.807,2.274L3.048,32.736l-0.807-2.274L36.922,17.44 M37.524,16.146L0.971,29.871   l1.476,4.159L39,20.305L37.524,16.146L37.524,16.146z"/>
</g>
<line style="fill:none;stroke:#4788C7;stroke-miterlimit:10;" x1="30.828" y1="23.156" x2="29.499" y2="19.377"/>
<line style="fill:none;stroke:#4788C7;stroke-miterlimit:10;" x1="24.539" y1="25.507" x2="23.21" y2="21.728"/>
<line style="fill:none;stroke:#4788C7;stroke-miterlimit:10;" x1="17.286" y1="28.284" x2="15.957" y2="24.505"/>
<line style="fill:none;stroke:#4788C7;stroke-miterlimit:10;" x1="10.487" y1="30.777" x2="9.158" y2="26.998"/>
<g>
	<polygon style="fill:#DFF0FE;" points="6.424,36.894 22.34,1.671 25.341,3.106 9.424,38.329  "/>
	<path style="fill:#4788C7;" d="M22.585,2.343l2.098,1.003L9.179,37.657L7.08,36.654L22.585,2.343 M22.095,1L5.766,37.134L9.669,39   L25.998,2.866L22.095,1L22.095,1z"/>
</g>
<line style="fill:none;stroke:#4788C7;stroke-miterlimit:10;" x1="15.661" y1="15.236" x2="19.535" y2="17.095"/>
<line style="fill:none;stroke:#4788C7;stroke-miterlimit:10;" x1="12.419" y1="22.486" x2="16.293" y2="24.345"/>
<line style="fill:none;stroke:#4788C7;stroke-miterlimit:10;" x1="9.437" y1="29.446" x2="12.985" y2="31.15"/>
<line style="fill:none;stroke:#4788C7;stroke-miterlimit:10;" x1="18.843" y1="8.777" x2="22.31" y2="10.441"/>
</svg>