<?xml version="1.0" encoding="UTF-8" standalone="no"?>
<!DOCTYPE svg PUBLIC "-//W3C//DTD SVG 1.1//EN" "http://www.w3.org/Graphics/SVG/1.1/DTD/svg11.dtd">
<svg width="100%" height="100%" viewBox="0 0 1783 1273" version="1.1" xmlns="http://www.w3.org/2000/svg" xmlns:xlink="http://www.w3.org/1999/xlink" xml:space="preserve" xmlns:serif="http://www.serif.com/" style="fill-rule:evenodd;clip-rule:evenodd;stroke-linejoin:round;stroke-miterlimit:2;">
    <g transform="matrix(1,0,0,1,-684.274,-620.738)">
        <g id="zombie.svg" transform="matrix(14.0707,0,0,14.0707,1582.61,1071)">
            <g transform="matrix(1,0,0,1,-32,-32)">
                <clipPath id="_clip1">
                    <rect x="0" y="0" width="64" height="64"/>
                </clipPath>
                <g clip-path="url(#_clip1)">
                    <g id="_19-Zombie">
                        <g transform="matrix(0.707107,-0.707107,0.707107,0.707107,12.352,33.82)">
                            <rect x="45.586" y="1" width="2.828" height="2" style="fill:rgb(103,156,32);"/>
                        </g>
                        <path d="M17,58L17,63L9,63C9,61.16 9.04,59.49 9.11,58L17,58Z" style="fill:rgb(227,183,157);fill-rule:nonzero;"/>
                        <rect x="36" y="56" width="12" height="7" style="fill:rgb(227,183,157);"/>
                        <path d="M61,40C59.253,40.813 57.678,41.954 56.36,43.36L52,39L56,35L56.04,34.94C57.893,36.419 59.558,38.118 61,40Z" style="fill:rgb(227,183,157);fill-rule:nonzero;"/>
                        <path d="M12,39L7.64,43.36C6.322,41.954 4.747,40.813 3,40C4.442,38.118 6.107,36.419 7.96,34.94L8,35L12,39Z" style="fill:rgb(227,183,157);fill-rule:nonzero;"/>
                        <path d="M56.36,43.36C57.678,41.954 59.253,40.813 61,40C62.148,47.617 62.816,55.299 63,63L55,63C55.083,58.313 54.748,53.628 54,49C54.04,46.889 54.884,44.87 56.36,43.36Z" style="fill:rgb(150,104,87);fill-rule:nonzero;"/>
                        <path d="M9.11,58C9.04,59.49 9,61.16 9,63L1,63C1.184,55.299 1.852,47.617 3,40C4.747,40.813 6.322,41.954 7.64,43.36C9.116,44.87 9.96,46.889 10,49C9.499,51.976 9.202,54.983 9.11,58Z" style="fill:rgb(150,104,87);fill-rule:nonzero;"/>
                        <path d="M52,39L56.36,43.36C54.884,44.87 54.04,46.889 54,49C54.748,53.628 55.083,58.313 55,63L48,63L48,56L36,56L36,63L17,63L17,58L9.11,58C9.202,54.983 9.499,51.976 10,49C9.96,46.889 9.116,44.87 7.64,43.36L12,39L8,35L7.96,34.94C12.97,31 17,31 17,31L17,33C17,35.194 18.806,37 21,37L23,37L23,39C23.003,40.096 23.904,40.997 25,41L26,41C26,41 26,47 32,47C38,47 38,41 38,41L39,41C40.096,40.997 40.997,40.096 41,39L41,37L43,37C45.194,37 47,35.194 47,33L47,31C47,31 51.03,31 56.04,34.94L56,35L52,39Z" style="fill:rgb(191,148,122);fill-rule:nonzero;"/>
                        <path d="M26,41L38,41C38,41 38,47 32,47C26,47 26,41 26,41Z" style="fill:rgb(103,156,32);fill-rule:nonzero;"/>
                        <path d="M17,16L17,24L15,24C13.904,23.997 13.003,23.096 13,22L13,16L17,16Z" style="fill:rgb(103,156,32);fill-rule:nonzero;"/>
                        <path d="M51,16L51,22C50.997,23.096 50.096,23.997 49,24L47,24L47,16L51,16Z" style="fill:rgb(103,156,32);fill-rule:nonzero;"/>
                        <path d="M30.59,17L21.41,17C22.207,15.181 24.014,13.999 26,13.999C27.986,13.999 29.793,15.181 30.59,17Z" style="fill:rgb(167,227,64);fill-rule:nonzero;"/>
                        <circle cx="39" cy="19" r="4" style="fill:rgb(242,246,252);"/>
                        <path d="M30.59,17C30.86,17.632 30.999,18.313 31,19C31,21.743 28.743,24 26,24C23.257,24 21,21.743 21,19C21.001,18.313 21.14,17.632 21.41,17L30.59,17Z" style="fill:rgb(205,210,225);fill-rule:nonzero;"/>
                        <path d="M21.41,19C21.273,19.325 21.17,19.664 21.103,20.01C21.58,22.325 23.637,24 26,24C28.363,24 30.42,22.325 30.897,20.01C30.83,19.664 30.727,19.325 30.59,19L21.41,19Z" style="fill:rgb(242,246,252);fill-rule:nonzero;"/>
                        <rect x="27" y="29" width="10" height="8" style="fill:rgb(159,114,252);"/>
                        <path d="M30,29L27,29L27,37L37,37L37,34L35,34C32.257,34 30,31.743 30,29Z" style="fill:rgb(132,87,229);fill-rule:nonzero;"/>
                        <path d="M47,22L47,33C47,35.194 45.194,37 43,37L41,37L41,28C41.021,28 41.042,28.001 41.063,28.001C42.674,28.001 44.001,26.674 44.001,25.063C44.001,25.042 44,25.021 44,25C44,24.979 43.999,24.958 43.999,24.937C43.999,23.326 45.326,21.999 46.937,21.999C46.958,21.999 46.979,22 47,22Z" style="fill:rgb(134,196,43);fill-rule:nonzero;"/>
                        <path d="M20,25C20,25.021 19.999,25.042 19.999,25.063C19.999,26.674 21.326,28.001 22.937,28.001C22.958,28.001 22.979,28 23,28L23,37L21,37C18.806,37 17,35.194 17,33L17,22C17.021,22 17.042,21.999 17.063,21.999C18.674,21.999 20.001,23.326 20.001,24.937C20.001,24.958 20,24.979 20,25Z" style="fill:rgb(134,196,43);fill-rule:nonzero;"/>
                        <path d="M21,1L28,1C28,12 17,12 17,12L17,5C17,2.806 18.806,1 21,1Z" style="fill:rgb(134,196,43);fill-rule:nonzero;"/>
                        <path d="M47,5L47,12C36,12 36,1 36,1L43,1C45.194,1 47,2.806 47,5Z" style="fill:rgb(167,227,64);fill-rule:nonzero;"/>
                        <path d="M20,25C20,24.979 20.001,24.958 20.001,24.937C20.001,23.326 18.674,21.999 17.063,21.999C17.042,21.999 17.021,22 17,22L17,12C17,12 28,12 28,1L36,1C36,1 36,12 47,12L47,22C46.979,22 46.958,21.999 46.937,21.999C45.326,21.999 43.999,23.326 43.999,24.937C43.999,24.958 44,24.979 44,25C44,25.021 44.001,25.042 44.001,25.063C44.001,26.674 42.674,28.001 41.063,28.001C41.042,28.001 41.021,28 41,28L41,39C40.997,40.096 40.096,40.997 39,41L25,41C23.904,40.997 23.003,40.096 23,39L23,28C22.979,28 22.958,28.001 22.937,28.001C21.326,28.001 19.999,26.674 19.999,25.063C19.999,25.042 20,25.021 20,25ZM30.59,17C29.793,15.181 27.986,13.999 26,13.999C24.014,13.999 22.207,15.181 21.41,17C21.14,17.632 21.001,18.313 21,19C21,21.743 23.257,24 26,24C28.743,24 31,21.743 31,19C30.999,18.313 30.86,17.632 30.59,17ZM43,19C43,16.806 41.194,15 39,15C36.806,15 35,16.806 35,19C35,21.194 36.806,23 39,23C41.194,23 43,21.194 43,19ZM37,37L37,29L27,29L27,37L37,37Z" style="fill:rgb(205,245,95);fill-rule:nonzero;"/>
                        <rect x="29" y="29" width="2" height="3" style="fill:rgb(242,246,252);"/>
                        <rect x="33" y="34" width="2" height="3" style="fill:rgb(242,246,252);"/>
                        <rect x="38" y="18" width="2" height="2" style="fill:rgb(126,133,150);"/>
                        <rect x="25" y="17" width="2" height="3" style="fill:rgb(126,133,150);"/>
                        <g transform="matrix(0.514499,-0.857491,0.857491,0.514499,7.292,25.879)">
                            <rect x="25.5" y="3.585" width="2" height="5.831" style="fill:rgb(126,133,150);"/>
                        </g>
                        <g transform="matrix(0.707107,-0.707107,0.707107,0.707107,-0.335,19.192)">
                            <rect x="22" y="7.172" width="2" height="5.657" style="fill:rgb(126,133,150);"/>
                        </g>
                        <rect x="47" y="10" width="3" height="2" style="fill:rgb(103,156,32);"/>
                        <g transform="matrix(0.707107,-0.707107,0.707107,0.707107,-26.062,19.08)">
                            <rect x="9" y="38.172" width="2" height="5.657" style="fill:rgb(150,104,87);"/>
                        </g>
                        <g transform="matrix(0.707107,-0.707107,0.707107,0.707107,-13.175,50.192)">
                            <rect x="51.172" y="40" width="5.657" height="2" style="fill:rgb(150,104,87);"/>
                        </g>
                        <rect x="39" y="54" width="2" height="4" style="fill:rgb(150,104,87);"/>
                        <rect x="43" y="54" width="2" height="4" style="fill:rgb(150,104,87);"/>
                        <rect x="34" y="59" width="4" height="2" style="fill:rgb(150,104,87);"/>
                        <rect x="46" y="59" width="4" height="2" style="fill:rgb(150,104,87);"/>
                        <rect x="12" y="56" width="2" height="4" style="fill:rgb(150,104,87);"/>
                        <path d="M61.988,39.848C61.961,39.68 61.893,39.521 61.788,39.386C56.035,31.986 50.264,30.426 47.998,30.093L47.998,25L48.998,25C50.644,25 51.998,23.646 51.998,22L51.998,16C51.998,15.451 51.547,15 50.998,15L48,15L48,12L50,12L50,10L48,10L48,5C47.996,4.273 47.832,3.556 47.519,2.9L48.707,1.712L47.293,0.293L46.307,1.279C45.4,0.46 44.222,0.004 43,0L21,0C18.258,0.003 16.003,2.258 16,5L16,15L13,15C12.451,15 12,15.451 12,16L12,22C12,23.646 13.354,25 15,25L16,25L16,30.093C13.734,30.426 7.963,31.993 2.21,39.386C2.105,39.521 2.037,39.68 2.01,39.848C0.859,47.516 0.187,55.248 -0,63C-0,63.549 0.451,64 1,64L63,64C63.549,64 64,63.549 64,63C63.812,55.248 63.14,47.516 61.988,39.848ZM48,17L50,17L50,22C50,22.549 49.549,23 49,23L48,23L48,17ZM59.436,39.678C58.323,40.307 57.287,41.066 56.351,41.937L55.414,41L56.707,39.707L55.293,38.293L54,39.586L53.414,39L56.108,36.306C57.311,37.333 58.425,38.461 59.436,39.678ZM43,2C44.646,2 46,3.354 46,5L46,10.962C38.792,10.451 37.356,4.435 37.071,2L43,2ZM18,5C18,3.354 19.354,2 21,2L26.962,2C26.894,3.094 26.658,4.172 26.262,5.194L24.515,4.143L23.485,5.857L25.324,6.957C24.785,7.725 24.122,8.398 23.36,8.946L21.707,7.293L20.293,8.707L21.559,9.973C20.426,10.464 19.227,10.786 18,10.928L18,5ZM18,12.926C19.752,12.732 21.457,12.233 23.038,11.452L24.293,12.707L25.707,11.293L24.781,10.367C25.663,9.708 26.431,8.908 27.055,8L28.485,8.857L29.515,7.143L28.015,6.243C28.576,4.895 28.899,3.459 28.968,2L35.074,2C35.388,4.777 37.066,12.435 46,12.968L46,33C46,34.646 44.646,36 43,36L42,36L42,28.874C43.805,28.492 45.082,26.844 45,25L43,25C43.003,25.04 43.004,25.08 43.004,25.12C43.004,26.153 42.153,27.004 41.12,27.004C41.08,27.004 41.04,27.003 41,27C40.451,27 40,27.451 40,28L40,39C40,39.549 39.549,40 39,40L25,40C24.451,40 24,39.549 24,39L24,28C23.996,27.455 23.551,27.008 23.007,27C22.965,27.003 22.923,27.004 22.881,27.004C21.847,27.004 20.996,26.153 20.996,25.119C20.996,25.079 20.997,25.04 21,25L19,25C18.918,26.844 20.195,28.492 22,28.874L22,36L21,36C19.354,36 18,34.646 18,33L18,12.926ZM36.894,42C36.59,44.41 34.422,46.182 32,46C29.578,46.182 27.41,44.41 27.106,42L36.894,42ZM15,23C14.451,23 14,22.549 14,22L14,17L16,17L16,23L15,23ZM7.892,36.306L10.586,39L10,39.586L8.707,38.293L7.293,39.707L8.586,41L7.649,41.937C6.713,41.066 5.677,40.307 4.564,39.678C5.575,38.461 6.689,37.333 7.892,36.306ZM8.006,62L2.006,62C2.214,55.153 2.809,48.324 3.787,41.544C5.618,42.625 8.947,45.106 9,48.908C8.308,53.237 7.975,57.616 8.006,62ZM16,62L10.007,62C10.016,60.939 10.038,59.939 10.072,59L12,59L12,60L14,60L14,59L16,59L16,62ZM47,59L46,59L46,61L47,61L47,62L37,62L37,61L38,61L38,59L37,59L37,57L39,57L39,58L41,58L41,57L43,57L43,58L45,58L45,57L47,57L47,59ZM49,62L49,61L50,61L50,59L49,59L49,56C49,55.451 48.549,55 48,55L45,55L45,54L43,54L43,55L41,55L41,54L39,54L39,55L36,55C35.451,55 35,55.451 35,56L35,59L34,59L34,61L35,61L35,62L18,62L18,58C18,57.451 17.549,57 17,57L14,57L14,56L12,56L12,57L10.161,57C10.273,54.386 10.546,51.781 10.98,49.2C10.994,49.134 11.001,49.067 11,49C10.983,46.967 10.278,44.999 9,43.418L10,42.418L11.293,43.711L12.707,42.297L11.414,41L12.707,39.707C13.095,39.319 13.095,38.681 12.707,38.293L9.485,35.071C11.422,33.636 13.643,32.633 16,32.129L16,33C16.003,35.742 18.258,37.997 21,38L22,38L22,39C22,40.646 23.354,42 25,42L25.074,42C25.399,45.512 28.478,48.179 32,48C35.522,48.179 38.601,45.512 38.926,42L39,42C40.646,42 42,40.646 42,39L42,38L43,38C45.742,37.997 47.997,35.742 48,33L48,32.129C50.357,32.633 52.578,33.636 54.515,35.071L51.293,38.293C50.905,38.681 50.905,39.319 51.293,39.707L52.586,41L51.293,42.293L52.707,43.707L54,42.414L55,43.414C53.721,44.996 53.016,46.966 53,49C52.999,49.067 53.006,49.134 53.02,49.2C53.7,53.432 54.025,57.714 53.993,62L49,62ZM55.994,62C56.025,57.616 55.692,53.237 55,48.908C55.054,45.122 58.382,42.634 60.214,41.547C61.192,48.326 61.786,55.154 61.994,62L55.994,62Z" style="fill-rule:nonzero;"/>
                        <path d="M37,28L27,28C26.451,28 26,28.451 26,29L26,37C26,37.549 26.451,38 27,38L37,38C37.549,38 38,37.549 38,37L38,29C38,28.451 37.549,28 37,28ZM36,36L35,36L35,34L33,34L33,36L28,36L28,30L29,30L29,32L31,32L31,30L36,30L36,36Z" style="fill-rule:nonzero;"/>
                        <path d="M32,19C32,15.708 29.292,13 26,13C22.708,13 20,15.708 20,19C20,22.292 22.708,25 26,25C29.29,24.997 31.997,22.29 32,19ZM28.618,16L23.382,16C24.865,14.673 27.135,14.673 28.618,16ZM22,19C22.004,18.662 22.052,18.326 22.142,18L25,18L25,20L27,20L27,18L29.858,18C29.948,18.326 29.996,18.662 30,19C30,21.194 28.194,23 26,23C23.806,23 22,21.194 22,19Z" style="fill-rule:nonzero;"/>
                        <path d="M39,14C36.257,14 34,16.257 34,19C34,21.743 36.257,24 39,24C41.743,24 44,21.743 44,19C43.997,16.258 41.742,14.003 39,14ZM39,22C37.354,22 36,20.646 36,19C36,17.354 37.354,16 39,16C40.646,16 42,17.354 42,19C42,20.646 40.646,22 39,22Z" style="fill-rule:nonzero;"/>
                        <rect x="38" y="18" width="2" height="2"/>
                    </g>
                </g>
            </g>
        </g>
        <g id="zombie.svg1" serif:id="zombie.svg" transform="matrix(14.0707,0,0,14.0707,1134.54,1264.07)">
            <g transform="matrix(1,0,0,1,-32,-32)">
                <clipPath id="_clip2">
                    <rect x="0" y="0" width="64" height="64"/>
                </clipPath>
                <g clip-path="url(#_clip2)">
                    <g id="_19-Zombie1" serif:id="_19-Zombie">
                        <g transform="matrix(0.707107,-0.707107,0.707107,0.707107,12.352,33.82)">
                            <rect x="45.586" y="1" width="2.828" height="2" style="fill:rgb(103,156,32);"/>
                        </g>
                        <path d="M17,58L17,63L9,63C9,61.16 9.04,59.49 9.11,58L17,58Z" style="fill:rgb(227,183,157);fill-rule:nonzero;"/>
                        <rect x="36" y="56" width="12" height="7" style="fill:rgb(227,183,157);"/>
                        <path d="M61,40C59.253,40.813 57.678,41.954 56.36,43.36L52,39L56,35L56.04,34.94C57.893,36.419 59.558,38.118 61,40Z" style="fill:rgb(227,183,157);fill-rule:nonzero;"/>
                        <path d="M12,39L7.64,43.36C6.322,41.954 4.747,40.813 3,40C4.442,38.118 6.107,36.419 7.96,34.94L8,35L12,39Z" style="fill:rgb(227,183,157);fill-rule:nonzero;"/>
                        <path d="M56.36,43.36C57.678,41.954 59.253,40.813 61,40C62.148,47.617 62.816,55.299 63,63L55,63C55.083,58.313 54.748,53.628 54,49C54.04,46.889 54.884,44.87 56.36,43.36Z" style="fill:rgb(150,104,87);fill-rule:nonzero;"/>
                        <path d="M9.11,58C9.04,59.49 9,61.16 9,63L1,63C1.184,55.299 1.852,47.617 3,40C4.747,40.813 6.322,41.954 7.64,43.36C9.116,44.87 9.96,46.889 10,49C9.499,51.976 9.202,54.983 9.11,58Z" style="fill:rgb(150,104,87);fill-rule:nonzero;"/>
                        <path d="M52,39L56.36,43.36C54.884,44.87 54.04,46.889 54,49C54.748,53.628 55.083,58.313 55,63L48,63L48,56L36,56L36,63L17,63L17,58L9.11,58C9.202,54.983 9.499,51.976 10,49C9.96,46.889 9.116,44.87 7.64,43.36L12,39L8,35L7.96,34.94C12.97,31 17,31 17,31L17,33C17,35.194 18.806,37 21,37L23,37L23,39C23.003,40.096 23.904,40.997 25,41L26,41C26,41 26,47 32,47C38,47 38,41 38,41L39,41C40.096,40.997 40.997,40.096 41,39L41,37L43,37C45.194,37 47,35.194 47,33L47,31C47,31 51.03,31 56.04,34.94L56,35L52,39Z" style="fill:rgb(191,148,122);fill-rule:nonzero;"/>
                        <path d="M26,41L38,41C38,41 38,47 32,47C26,47 26,41 26,41Z" style="fill:rgb(103,156,32);fill-rule:nonzero;"/>
                        <path d="M17,16L17,24L15,24C13.904,23.997 13.003,23.096 13,22L13,16L17,16Z" style="fill:rgb(103,156,32);fill-rule:nonzero;"/>
                        <path d="M51,16L51,22C50.997,23.096 50.096,23.997 49,24L47,24L47,16L51,16Z" style="fill:rgb(103,156,32);fill-rule:nonzero;"/>
                        <path d="M30.59,17L21.41,17C22.207,15.181 24.014,13.999 26,13.999C27.986,13.999 29.793,15.181 30.59,17Z" style="fill:rgb(167,227,64);fill-rule:nonzero;"/>
                        <circle cx="39" cy="19" r="4" style="fill:rgb(242,246,252);"/>
                        <path d="M30.59,17C30.86,17.632 30.999,18.313 31,19C31,21.743 28.743,24 26,24C23.257,24 21,21.743 21,19C21.001,18.313 21.14,17.632 21.41,17L30.59,17Z" style="fill:rgb(205,210,225);fill-rule:nonzero;"/>
                        <path d="M21.41,19C21.273,19.325 21.17,19.664 21.103,20.01C21.58,22.325 23.637,24 26,24C28.363,24 30.42,22.325 30.897,20.01C30.83,19.664 30.727,19.325 30.59,19L21.41,19Z" style="fill:rgb(242,246,252);fill-rule:nonzero;"/>
                        <rect x="27" y="29" width="10" height="8" style="fill:rgb(159,114,252);"/>
                        <path d="M30,29L27,29L27,37L37,37L37,34L35,34C32.257,34 30,31.743 30,29Z" style="fill:rgb(132,87,229);fill-rule:nonzero;"/>
                        <path d="M47,22L47,33C47,35.194 45.194,37 43,37L41,37L41,28C41.021,28 41.042,28.001 41.063,28.001C42.674,28.001 44.001,26.674 44.001,25.063C44.001,25.042 44,25.021 44,25C44,24.979 43.999,24.958 43.999,24.937C43.999,23.326 45.326,21.999 46.937,21.999C46.958,21.999 46.979,22 47,22Z" style="fill:rgb(134,196,43);fill-rule:nonzero;"/>
                        <path d="M20,25C20,25.021 19.999,25.042 19.999,25.063C19.999,26.674 21.326,28.001 22.937,28.001C22.958,28.001 22.979,28 23,28L23,37L21,37C18.806,37 17,35.194 17,33L17,22C17.021,22 17.042,21.999 17.063,21.999C18.674,21.999 20.001,23.326 20.001,24.937C20.001,24.958 20,24.979 20,25Z" style="fill:rgb(134,196,43);fill-rule:nonzero;"/>
                        <path d="M21,1L28,1C28,12 17,12 17,12L17,5C17,2.806 18.806,1 21,1Z" style="fill:rgb(134,196,43);fill-rule:nonzero;"/>
                        <path d="M47,5L47,12C36,12 36,1 36,1L43,1C45.194,1 47,2.806 47,5Z" style="fill:rgb(167,227,64);fill-rule:nonzero;"/>
                        <path d="M20,25C20,24.979 20.001,24.958 20.001,24.937C20.001,23.326 18.674,21.999 17.063,21.999C17.042,21.999 17.021,22 17,22L17,12C17,12 28,12 28,1L36,1C36,1 36,12 47,12L47,22C46.979,22 46.958,21.999 46.937,21.999C45.326,21.999 43.999,23.326 43.999,24.937C43.999,24.958 44,24.979 44,25C44,25.021 44.001,25.042 44.001,25.063C44.001,26.674 42.674,28.001 41.063,28.001C41.042,28.001 41.021,28 41,28L41,39C40.997,40.096 40.096,40.997 39,41L25,41C23.904,40.997 23.003,40.096 23,39L23,28C22.979,28 22.958,28.001 22.937,28.001C21.326,28.001 19.999,26.674 19.999,25.063C19.999,25.042 20,25.021 20,25ZM30.59,17C29.793,15.181 27.986,13.999 26,13.999C24.014,13.999 22.207,15.181 21.41,17C21.14,17.632 21.001,18.313 21,19C21,21.743 23.257,24 26,24C28.743,24 31,21.743 31,19C30.999,18.313 30.86,17.632 30.59,17ZM43,19C43,16.806 41.194,15 39,15C36.806,15 35,16.806 35,19C35,21.194 36.806,23 39,23C41.194,23 43,21.194 43,19ZM37,37L37,29L27,29L27,37L37,37Z" style="fill:rgb(205,245,95);fill-rule:nonzero;"/>
                        <rect x="29" y="29" width="2" height="3" style="fill:rgb(242,246,252);"/>
                        <rect x="33" y="34" width="2" height="3" style="fill:rgb(242,246,252);"/>
                        <rect x="38" y="18" width="2" height="2" style="fill:rgb(126,133,150);"/>
                        <rect x="25" y="17" width="2" height="3" style="fill:rgb(126,133,150);"/>
                        <g transform="matrix(0.514499,-0.857491,0.857491,0.514499,7.292,25.879)">
                            <rect x="25.5" y="3.585" width="2" height="5.831" style="fill:rgb(126,133,150);"/>
                        </g>
                        <g transform="matrix(0.707107,-0.707107,0.707107,0.707107,-0.335,19.192)">
                            <rect x="22" y="7.172" width="2" height="5.657" style="fill:rgb(126,133,150);"/>
                        </g>
                        <rect x="47" y="10" width="3" height="2" style="fill:rgb(103,156,32);"/>
                        <g transform="matrix(0.707107,-0.707107,0.707107,0.707107,-26.062,19.08)">
                            <rect x="9" y="38.172" width="2" height="5.657" style="fill:rgb(150,104,87);"/>
                        </g>
                        <g transform="matrix(0.707107,-0.707107,0.707107,0.707107,-13.175,50.192)">
                            <rect x="51.172" y="40" width="5.657" height="2" style="fill:rgb(150,104,87);"/>
                        </g>
                        <rect x="39" y="54" width="2" height="4" style="fill:rgb(150,104,87);"/>
                        <rect x="43" y="54" width="2" height="4" style="fill:rgb(150,104,87);"/>
                        <rect x="34" y="59" width="4" height="2" style="fill:rgb(150,104,87);"/>
                        <rect x="46" y="59" width="4" height="2" style="fill:rgb(150,104,87);"/>
                        <rect x="12" y="56" width="2" height="4" style="fill:rgb(150,104,87);"/>
                        <path d="M61.988,39.848C61.961,39.68 61.893,39.521 61.788,39.386C56.035,31.986 50.264,30.426 47.998,30.093L47.998,25L48.998,25C50.644,25 51.998,23.646 51.998,22L51.998,16C51.998,15.451 51.547,15 50.998,15L48,15L48,12L50,12L50,10L48,10L48,5C47.996,4.273 47.832,3.556 47.519,2.9L48.707,1.712L47.293,0.293L46.307,1.279C45.4,0.46 44.222,0.004 43,0L21,0C18.258,0.003 16.003,2.258 16,5L16,15L13,15C12.451,15 12,15.451 12,16L12,22C12,23.646 13.354,25 15,25L16,25L16,30.093C13.734,30.426 7.963,31.993 2.21,39.386C2.105,39.521 2.037,39.68 2.01,39.848C0.859,47.516 0.187,55.248 -0,63C-0,63.549 0.451,64 1,64L63,64C63.549,64 64,63.549 64,63C63.812,55.248 63.14,47.516 61.988,39.848ZM48,17L50,17L50,22C50,22.549 49.549,23 49,23L48,23L48,17ZM59.436,39.678C58.323,40.307 57.287,41.066 56.351,41.937L55.414,41L56.707,39.707L55.293,38.293L54,39.586L53.414,39L56.108,36.306C57.311,37.333 58.425,38.461 59.436,39.678ZM43,2C44.646,2 46,3.354 46,5L46,10.962C38.792,10.451 37.356,4.435 37.071,2L43,2ZM18,5C18,3.354 19.354,2 21,2L26.962,2C26.894,3.094 26.658,4.172 26.262,5.194L24.515,4.143L23.485,5.857L25.324,6.957C24.785,7.725 24.122,8.398 23.36,8.946L21.707,7.293L20.293,8.707L21.559,9.973C20.426,10.464 19.227,10.786 18,10.928L18,5ZM18,12.926C19.752,12.732 21.457,12.233 23.038,11.452L24.293,12.707L25.707,11.293L24.781,10.367C25.663,9.708 26.431,8.908 27.055,8L28.485,8.857L29.515,7.143L28.015,6.243C28.576,4.895 28.899,3.459 28.968,2L35.074,2C35.388,4.777 37.066,12.435 46,12.968L46,33C46,34.646 44.646,36 43,36L42,36L42,28.874C43.805,28.492 45.082,26.844 45,25L43,25C43.003,25.04 43.004,25.08 43.004,25.12C43.004,26.153 42.153,27.004 41.12,27.004C41.08,27.004 41.04,27.003 41,27C40.451,27 40,27.451 40,28L40,39C40,39.549 39.549,40 39,40L25,40C24.451,40 24,39.549 24,39L24,28C23.996,27.455 23.551,27.008 23.007,27C22.965,27.003 22.923,27.004 22.881,27.004C21.847,27.004 20.996,26.153 20.996,25.119C20.996,25.079 20.997,25.04 21,25L19,25C18.918,26.844 20.195,28.492 22,28.874L22,36L21,36C19.354,36 18,34.646 18,33L18,12.926ZM36.894,42C36.59,44.41 34.422,46.182 32,46C29.578,46.182 27.41,44.41 27.106,42L36.894,42ZM15,23C14.451,23 14,22.549 14,22L14,17L16,17L16,23L15,23ZM7.892,36.306L10.586,39L10,39.586L8.707,38.293L7.293,39.707L8.586,41L7.649,41.937C6.713,41.066 5.677,40.307 4.564,39.678C5.575,38.461 6.689,37.333 7.892,36.306ZM8.006,62L2.006,62C2.214,55.153 2.809,48.324 3.787,41.544C5.618,42.625 8.947,45.106 9,48.908C8.308,53.237 7.975,57.616 8.006,62ZM16,62L10.007,62C10.016,60.939 10.038,59.939 10.072,59L12,59L12,60L14,60L14,59L16,59L16,62ZM47,59L46,59L46,61L47,61L47,62L37,62L37,61L38,61L38,59L37,59L37,57L39,57L39,58L41,58L41,57L43,57L43,58L45,58L45,57L47,57L47,59ZM49,62L49,61L50,61L50,59L49,59L49,56C49,55.451 48.549,55 48,55L45,55L45,54L43,54L43,55L41,55L41,54L39,54L39,55L36,55C35.451,55 35,55.451 35,56L35,59L34,59L34,61L35,61L35,62L18,62L18,58C18,57.451 17.549,57 17,57L14,57L14,56L12,56L12,57L10.161,57C10.273,54.386 10.546,51.781 10.98,49.2C10.994,49.134 11.001,49.067 11,49C10.983,46.967 10.278,44.999 9,43.418L10,42.418L11.293,43.711L12.707,42.297L11.414,41L12.707,39.707C13.095,39.319 13.095,38.681 12.707,38.293L9.485,35.071C11.422,33.636 13.643,32.633 16,32.129L16,33C16.003,35.742 18.258,37.997 21,38L22,38L22,39C22,40.646 23.354,42 25,42L25.074,42C25.399,45.512 28.478,48.179 32,48C35.522,48.179 38.601,45.512 38.926,42L39,42C40.646,42 42,40.646 42,39L42,38L43,38C45.742,37.997 47.997,35.742 48,33L48,32.129C50.357,32.633 52.578,33.636 54.515,35.071L51.293,38.293C50.905,38.681 50.905,39.319 51.293,39.707L52.586,41L51.293,42.293L52.707,43.707L54,42.414L55,43.414C53.721,44.996 53.016,46.966 53,49C52.999,49.067 53.006,49.134 53.02,49.2C53.7,53.432 54.025,57.714 53.993,62L49,62ZM55.994,62C56.025,57.616 55.692,53.237 55,48.908C55.054,45.122 58.382,42.634 60.214,41.547C61.192,48.326 61.786,55.154 61.994,62L55.994,62Z" style="fill-rule:nonzero;"/>
                        <path d="M37,28L27,28C26.451,28 26,28.451 26,29L26,37C26,37.549 26.451,38 27,38L37,38C37.549,38 38,37.549 38,37L38,29C38,28.451 37.549,28 37,28ZM36,36L35,36L35,34L33,34L33,36L28,36L28,30L29,30L29,32L31,32L31,30L36,30L36,36Z" style="fill-rule:nonzero;"/>
                        <path d="M32,19C32,15.708 29.292,13 26,13C22.708,13 20,15.708 20,19C20,22.292 22.708,25 26,25C29.29,24.997 31.997,22.29 32,19ZM28.618,16L23.382,16C24.865,14.673 27.135,14.673 28.618,16ZM22,19C22.004,18.662 22.052,18.326 22.142,18L25,18L25,20L27,20L27,18L29.858,18C29.948,18.326 29.996,18.662 30,19C30,21.194 28.194,23 26,23C23.806,23 22,21.194 22,19Z" style="fill-rule:nonzero;"/>
                        <path d="M39,14C36.257,14 34,16.257 34,19C34,21.743 36.257,24 39,24C41.743,24 44,21.743 44,19C43.997,16.258 41.742,14.003 39,14ZM39,22C37.354,22 36,20.646 36,19C36,17.354 37.354,16 39,16C40.646,16 42,17.354 42,19C42,20.646 40.646,22 39,22Z" style="fill-rule:nonzero;"/>
                        <rect x="38" y="18" width="2" height="2"/>
                    </g>
                </g>
            </g>
        </g>
        <g id="zombie.svg2" serif:id="zombie.svg" transform="matrix(14.0707,0,0,14.0707,2016.11,1300.5)">
            <g transform="matrix(1,0,0,1,-32,-32)">
                <clipPath id="_clip3">
                    <rect x="0" y="0" width="64" height="64"/>
                </clipPath>
                <g clip-path="url(#_clip3)">
                    <g id="_19-Zombie2" serif:id="_19-Zombie">
                        <g transform="matrix(0.707107,-0.707107,0.707107,0.707107,12.352,33.82)">
                            <rect x="45.586" y="1" width="2.828" height="2" style="fill:rgb(103,156,32);"/>
                        </g>
                        <path d="M17,58L17,63L9,63C9,61.16 9.04,59.49 9.11,58L17,58Z" style="fill:rgb(227,183,157);fill-rule:nonzero;"/>
                        <rect x="36" y="56" width="12" height="7" style="fill:rgb(227,183,157);"/>
                        <path d="M61,40C59.253,40.813 57.678,41.954 56.36,43.36L52,39L56,35L56.04,34.94C57.893,36.419 59.558,38.118 61,40Z" style="fill:rgb(227,183,157);fill-rule:nonzero;"/>
                        <path d="M12,39L7.64,43.36C6.322,41.954 4.747,40.813 3,40C4.442,38.118 6.107,36.419 7.96,34.94L8,35L12,39Z" style="fill:rgb(227,183,157);fill-rule:nonzero;"/>
                        <path d="M56.36,43.36C57.678,41.954 59.253,40.813 61,40C62.148,47.617 62.816,55.299 63,63L55,63C55.083,58.313 54.748,53.628 54,49C54.04,46.889 54.884,44.87 56.36,43.36Z" style="fill:rgb(150,104,87);fill-rule:nonzero;"/>
                        <path d="M9.11,58C9.04,59.49 9,61.16 9,63L1,63C1.184,55.299 1.852,47.617 3,40C4.747,40.813 6.322,41.954 7.64,43.36C9.116,44.87 9.96,46.889 10,49C9.499,51.976 9.202,54.983 9.11,58Z" style="fill:rgb(150,104,87);fill-rule:nonzero;"/>
                        <path d="M52,39L56.36,43.36C54.884,44.87 54.04,46.889 54,49C54.748,53.628 55.083,58.313 55,63L48,63L48,56L36,56L36,63L17,63L17,58L9.11,58C9.202,54.983 9.499,51.976 10,49C9.96,46.889 9.116,44.87 7.64,43.36L12,39L8,35L7.96,34.94C12.97,31 17,31 17,31L17,33C17,35.194 18.806,37 21,37L23,37L23,39C23.003,40.096 23.904,40.997 25,41L26,41C26,41 26,47 32,47C38,47 38,41 38,41L39,41C40.096,40.997 40.997,40.096 41,39L41,37L43,37C45.194,37 47,35.194 47,33L47,31C47,31 51.03,31 56.04,34.94L56,35L52,39Z" style="fill:rgb(191,148,122);fill-rule:nonzero;"/>
                        <path d="M26,41L38,41C38,41 38,47 32,47C26,47 26,41 26,41Z" style="fill:rgb(103,156,32);fill-rule:nonzero;"/>
                        <path d="M17,16L17,24L15,24C13.904,23.997 13.003,23.096 13,22L13,16L17,16Z" style="fill:rgb(103,156,32);fill-rule:nonzero;"/>
                        <path d="M51,16L51,22C50.997,23.096 50.096,23.997 49,24L47,24L47,16L51,16Z" style="fill:rgb(103,156,32);fill-rule:nonzero;"/>
                        <path d="M30.59,17L21.41,17C22.207,15.181 24.014,13.999 26,13.999C27.986,13.999 29.793,15.181 30.59,17Z" style="fill:rgb(167,227,64);fill-rule:nonzero;"/>
                        <circle cx="39" cy="19" r="4" style="fill:rgb(242,246,252);"/>
                        <path d="M30.59,17C30.86,17.632 30.999,18.313 31,19C31,21.743 28.743,24 26,24C23.257,24 21,21.743 21,19C21.001,18.313 21.14,17.632 21.41,17L30.59,17Z" style="fill:rgb(205,210,225);fill-rule:nonzero;"/>
                        <path d="M21.41,19C21.273,19.325 21.17,19.664 21.103,20.01C21.58,22.325 23.637,24 26,24C28.363,24 30.42,22.325 30.897,20.01C30.83,19.664 30.727,19.325 30.59,19L21.41,19Z" style="fill:rgb(242,246,252);fill-rule:nonzero;"/>
                        <rect x="27" y="29" width="10" height="8" style="fill:rgb(159,114,252);"/>
                        <path d="M30,29L27,29L27,37L37,37L37,34L35,34C32.257,34 30,31.743 30,29Z" style="fill:rgb(132,87,229);fill-rule:nonzero;"/>
                        <path d="M47,22L47,33C47,35.194 45.194,37 43,37L41,37L41,28C41.021,28 41.042,28.001 41.063,28.001C42.674,28.001 44.001,26.674 44.001,25.063C44.001,25.042 44,25.021 44,25C44,24.979 43.999,24.958 43.999,24.937C43.999,23.326 45.326,21.999 46.937,21.999C46.958,21.999 46.979,22 47,22Z" style="fill:rgb(134,196,43);fill-rule:nonzero;"/>
                        <path d="M20,25C20,25.021 19.999,25.042 19.999,25.063C19.999,26.674 21.326,28.001 22.937,28.001C22.958,28.001 22.979,28 23,28L23,37L21,37C18.806,37 17,35.194 17,33L17,22C17.021,22 17.042,21.999 17.063,21.999C18.674,21.999 20.001,23.326 20.001,24.937C20.001,24.958 20,24.979 20,25Z" style="fill:rgb(134,196,43);fill-rule:nonzero;"/>
                        <path d="M21,1L28,1C28,12 17,12 17,12L17,5C17,2.806 18.806,1 21,1Z" style="fill:rgb(134,196,43);fill-rule:nonzero;"/>
                        <path d="M47,5L47,12C36,12 36,1 36,1L43,1C45.194,1 47,2.806 47,5Z" style="fill:rgb(167,227,64);fill-rule:nonzero;"/>
                        <path d="M20,25C20,24.979 20.001,24.958 20.001,24.937C20.001,23.326 18.674,21.999 17.063,21.999C17.042,21.999 17.021,22 17,22L17,12C17,12 28,12 28,1L36,1C36,1 36,12 47,12L47,22C46.979,22 46.958,21.999 46.937,21.999C45.326,21.999 43.999,23.326 43.999,24.937C43.999,24.958 44,24.979 44,25C44,25.021 44.001,25.042 44.001,25.063C44.001,26.674 42.674,28.001 41.063,28.001C41.042,28.001 41.021,28 41,28L41,39C40.997,40.096 40.096,40.997 39,41L25,41C23.904,40.997 23.003,40.096 23,39L23,28C22.979,28 22.958,28.001 22.937,28.001C21.326,28.001 19.999,26.674 19.999,25.063C19.999,25.042 20,25.021 20,25ZM30.59,17C29.793,15.181 27.986,13.999 26,13.999C24.014,13.999 22.207,15.181 21.41,17C21.14,17.632 21.001,18.313 21,19C21,21.743 23.257,24 26,24C28.743,24 31,21.743 31,19C30.999,18.313 30.86,17.632 30.59,17ZM43,19C43,16.806 41.194,15 39,15C36.806,15 35,16.806 35,19C35,21.194 36.806,23 39,23C41.194,23 43,21.194 43,19ZM37,37L37,29L27,29L27,37L37,37Z" style="fill:rgb(205,245,95);fill-rule:nonzero;"/>
                        <rect x="29" y="29" width="2" height="3" style="fill:rgb(242,246,252);"/>
                        <rect x="33" y="34" width="2" height="3" style="fill:rgb(242,246,252);"/>
                        <rect x="38" y="18" width="2" height="2" style="fill:rgb(126,133,150);"/>
                        <rect x="25" y="17" width="2" height="3" style="fill:rgb(126,133,150);"/>
                        <g transform="matrix(0.514499,-0.857491,0.857491,0.514499,7.292,25.879)">
                            <rect x="25.5" y="3.585" width="2" height="5.831" style="fill:rgb(126,133,150);"/>
                        </g>
                        <g transform="matrix(0.707107,-0.707107,0.707107,0.707107,-0.335,19.192)">
                            <rect x="22" y="7.172" width="2" height="5.657" style="fill:rgb(126,133,150);"/>
                        </g>
                        <rect x="47" y="10" width="3" height="2" style="fill:rgb(103,156,32);"/>
                        <g transform="matrix(0.707107,-0.707107,0.707107,0.707107,-26.062,19.08)">
                            <rect x="9" y="38.172" width="2" height="5.657" style="fill:rgb(150,104,87);"/>
                        </g>
                        <g transform="matrix(0.707107,-0.707107,0.707107,0.707107,-13.175,50.192)">
                            <rect x="51.172" y="40" width="5.657" height="2" style="fill:rgb(150,104,87);"/>
                        </g>
                        <rect x="39" y="54" width="2" height="4" style="fill:rgb(150,104,87);"/>
                        <rect x="43" y="54" width="2" height="4" style="fill:rgb(150,104,87);"/>
                        <rect x="34" y="59" width="4" height="2" style="fill:rgb(150,104,87);"/>
                        <rect x="46" y="59" width="4" height="2" style="fill:rgb(150,104,87);"/>
                        <rect x="12" y="56" width="2" height="4" style="fill:rgb(150,104,87);"/>
                        <path d="M61.988,39.848C61.961,39.68 61.893,39.521 61.788,39.386C56.035,31.986 50.264,30.426 47.998,30.093L47.998,25L48.998,25C50.644,25 51.998,23.646 51.998,22L51.998,16C51.998,15.451 51.547,15 50.998,15L48,15L48,12L50,12L50,10L48,10L48,5C47.996,4.273 47.832,3.556 47.519,2.9L48.707,1.712L47.293,0.293L46.307,1.279C45.4,0.46 44.222,0.004 43,0L21,0C18.258,0.003 16.003,2.258 16,5L16,15L13,15C12.451,15 12,15.451 12,16L12,22C12,23.646 13.354,25 15,25L16,25L16,30.093C13.734,30.426 7.963,31.993 2.21,39.386C2.105,39.521 2.037,39.68 2.01,39.848C0.859,47.516 0.187,55.248 -0,63C-0,63.549 0.451,64 1,64L63,64C63.549,64 64,63.549 64,63C63.812,55.248 63.14,47.516 61.988,39.848ZM48,17L50,17L50,22C50,22.549 49.549,23 49,23L48,23L48,17ZM59.436,39.678C58.323,40.307 57.287,41.066 56.351,41.937L55.414,41L56.707,39.707L55.293,38.293L54,39.586L53.414,39L56.108,36.306C57.311,37.333 58.425,38.461 59.436,39.678ZM43,2C44.646,2 46,3.354 46,5L46,10.962C38.792,10.451 37.356,4.435 37.071,2L43,2ZM18,5C18,3.354 19.354,2 21,2L26.962,2C26.894,3.094 26.658,4.172 26.262,5.194L24.515,4.143L23.485,5.857L25.324,6.957C24.785,7.725 24.122,8.398 23.36,8.946L21.707,7.293L20.293,8.707L21.559,9.973C20.426,10.464 19.227,10.786 18,10.928L18,5ZM18,12.926C19.752,12.732 21.457,12.233 23.038,11.452L24.293,12.707L25.707,11.293L24.781,10.367C25.663,9.708 26.431,8.908 27.055,8L28.485,8.857L29.515,7.143L28.015,6.243C28.576,4.895 28.899,3.459 28.968,2L35.074,2C35.388,4.777 37.066,12.435 46,12.968L46,33C46,34.646 44.646,36 43,36L42,36L42,28.874C43.805,28.492 45.082,26.844 45,25L43,25C43.003,25.04 43.004,25.08 43.004,25.12C43.004,26.153 42.153,27.004 41.12,27.004C41.08,27.004 41.04,27.003 41,27C40.451,27 40,27.451 40,28L40,39C40,39.549 39.549,40 39,40L25,40C24.451,40 24,39.549 24,39L24,28C23.996,27.455 23.551,27.008 23.007,27C22.965,27.003 22.923,27.004 22.881,27.004C21.847,27.004 20.996,26.153 20.996,25.119C20.996,25.079 20.997,25.04 21,25L19,25C18.918,26.844 20.195,28.492 22,28.874L22,36L21,36C19.354,36 18,34.646 18,33L18,12.926ZM36.894,42C36.59,44.41 34.422,46.182 32,46C29.578,46.182 27.41,44.41 27.106,42L36.894,42ZM15,23C14.451,23 14,22.549 14,22L14,17L16,17L16,23L15,23ZM7.892,36.306L10.586,39L10,39.586L8.707,38.293L7.293,39.707L8.586,41L7.649,41.937C6.713,41.066 5.677,40.307 4.564,39.678C5.575,38.461 6.689,37.333 7.892,36.306ZM8.006,62L2.006,62C2.214,55.153 2.809,48.324 3.787,41.544C5.618,42.625 8.947,45.106 9,48.908C8.308,53.237 7.975,57.616 8.006,62ZM16,62L10.007,62C10.016,60.939 10.038,59.939 10.072,59L12,59L12,60L14,60L14,59L16,59L16,62ZM47,59L46,59L46,61L47,61L47,62L37,62L37,61L38,61L38,59L37,59L37,57L39,57L39,58L41,58L41,57L43,57L43,58L45,58L45,57L47,57L47,59ZM49,62L49,61L50,61L50,59L49,59L49,56C49,55.451 48.549,55 48,55L45,55L45,54L43,54L43,55L41,55L41,54L39,54L39,55L36,55C35.451,55 35,55.451 35,56L35,59L34,59L34,61L35,61L35,62L18,62L18,58C18,57.451 17.549,57 17,57L14,57L14,56L12,56L12,57L10.161,57C10.273,54.386 10.546,51.781 10.98,49.2C10.994,49.134 11.001,49.067 11,49C10.983,46.967 10.278,44.999 9,43.418L10,42.418L11.293,43.711L12.707,42.297L11.414,41L12.707,39.707C13.095,39.319 13.095,38.681 12.707,38.293L9.485,35.071C11.422,33.636 13.643,32.633 16,32.129L16,33C16.003,35.742 18.258,37.997 21,38L22,38L22,39C22,40.646 23.354,42 25,42L25.074,42C25.399,45.512 28.478,48.179 32,48C35.522,48.179 38.601,45.512 38.926,42L39,42C40.646,42 42,40.646 42,39L42,38L43,38C45.742,37.997 47.997,35.742 48,33L48,32.129C50.357,32.633 52.578,33.636 54.515,35.071L51.293,38.293C50.905,38.681 50.905,39.319 51.293,39.707L52.586,41L51.293,42.293L52.707,43.707L54,42.414L55,43.414C53.721,44.996 53.016,46.966 53,49C52.999,49.067 53.006,49.134 53.02,49.2C53.7,53.432 54.025,57.714 53.993,62L49,62ZM55.994,62C56.025,57.616 55.692,53.237 55,48.908C55.054,45.122 58.382,42.634 60.214,41.547C61.192,48.326 61.786,55.154 61.994,62L55.994,62Z" style="fill-rule:nonzero;"/>
                        <path d="M37,28L27,28C26.451,28 26,28.451 26,29L26,37C26,37.549 26.451,38 27,38L37,38C37.549,38 38,37.549 38,37L38,29C38,28.451 37.549,28 37,28ZM36,36L35,36L35,34L33,34L33,36L28,36L28,30L29,30L29,32L31,32L31,30L36,30L36,36Z" style="fill-rule:nonzero;"/>
                        <path d="M32,19C32,15.708 29.292,13 26,13C22.708,13 20,15.708 20,19C20,22.292 22.708,25 26,25C29.29,24.997 31.997,22.29 32,19ZM28.618,16L23.382,16C24.865,14.673 27.135,14.673 28.618,16ZM22,19C22.004,18.662 22.052,18.326 22.142,18L25,18L25,20L27,20L27,18L29.858,18C29.948,18.326 29.996,18.662 30,19C30,21.194 28.194,23 26,23C23.806,23 22,21.194 22,19Z" style="fill-rule:nonzero;"/>
                        <path d="M39,14C36.257,14 34,16.257 34,19C34,21.743 36.257,24 39,24C41.743,24 44,21.743 44,19C43.997,16.258 41.742,14.003 39,14ZM39,22C37.354,22 36,20.646 36,19C36,17.354 37.354,16 39,16C40.646,16 42,17.354 42,19C42,20.646 40.646,22 39,22Z" style="fill-rule:nonzero;"/>
                        <rect x="38" y="18" width="2" height="2"/>
                    </g>
                </g>
            </g>
        </g>
        <g id="zombie.svg3" serif:id="zombie.svg" transform="matrix(14.0707,0,0,14.0707,1564.39,1442.57)">
            <g transform="matrix(1,0,0,1,-32,-32)">
                <clipPath id="_clip4">
                    <rect x="0" y="0" width="64" height="64"/>
                </clipPath>
                <g clip-path="url(#_clip4)">
                    <g id="_19-Zombie3" serif:id="_19-Zombie">
                        <g transform="matrix(0.707107,-0.707107,0.707107,0.707107,12.352,33.82)">
                            <rect x="45.586" y="1" width="2.828" height="2" style="fill:rgb(103,156,32);"/>
                        </g>
                        <path d="M17,58L17,63L9,63C9,61.16 9.04,59.49 9.11,58L17,58Z" style="fill:rgb(227,183,157);fill-rule:nonzero;"/>
                        <rect x="36" y="56" width="12" height="7" style="fill:rgb(227,183,157);"/>
                        <path d="M61,40C59.253,40.813 57.678,41.954 56.36,43.36L52,39L56,35L56.04,34.94C57.893,36.419 59.558,38.118 61,40Z" style="fill:rgb(227,183,157);fill-rule:nonzero;"/>
                        <path d="M12,39L7.64,43.36C6.322,41.954 4.747,40.813 3,40C4.442,38.118 6.107,36.419 7.96,34.94L8,35L12,39Z" style="fill:rgb(227,183,157);fill-rule:nonzero;"/>
                        <path d="M56.36,43.36C57.678,41.954 59.253,40.813 61,40C62.148,47.617 62.816,55.299 63,63L55,63C55.083,58.313 54.748,53.628 54,49C54.04,46.889 54.884,44.87 56.36,43.36Z" style="fill:rgb(150,104,87);fill-rule:nonzero;"/>
                        <path d="M9.11,58C9.04,59.49 9,61.16 9,63L1,63C1.184,55.299 1.852,47.617 3,40C4.747,40.813 6.322,41.954 7.64,43.36C9.116,44.87 9.96,46.889 10,49C9.499,51.976 9.202,54.983 9.11,58Z" style="fill:rgb(150,104,87);fill-rule:nonzero;"/>
                        <path d="M52,39L56.36,43.36C54.884,44.87 54.04,46.889 54,49C54.748,53.628 55.083,58.313 55,63L48,63L48,56L36,56L36,63L17,63L17,58L9.11,58C9.202,54.983 9.499,51.976 10,49C9.96,46.889 9.116,44.87 7.64,43.36L12,39L8,35L7.96,34.94C12.97,31 17,31 17,31L17,33C17,35.194 18.806,37 21,37L23,37L23,39C23.003,40.096 23.904,40.997 25,41L26,41C26,41 26,47 32,47C38,47 38,41 38,41L39,41C40.096,40.997 40.997,40.096 41,39L41,37L43,37C45.194,37 47,35.194 47,33L47,31C47,31 51.03,31 56.04,34.94L56,35L52,39Z" style="fill:rgb(191,148,122);fill-rule:nonzero;"/>
                        <path d="M26,41L38,41C38,41 38,47 32,47C26,47 26,41 26,41Z" style="fill:rgb(103,156,32);fill-rule:nonzero;"/>
                        <path d="M17,16L17,24L15,24C13.904,23.997 13.003,23.096 13,22L13,16L17,16Z" style="fill:rgb(103,156,32);fill-rule:nonzero;"/>
                        <path d="M51,16L51,22C50.997,23.096 50.096,23.997 49,24L47,24L47,16L51,16Z" style="fill:rgb(103,156,32);fill-rule:nonzero;"/>
                        <path d="M30.59,17L21.41,17C22.207,15.181 24.014,13.999 26,13.999C27.986,13.999 29.793,15.181 30.59,17Z" style="fill:rgb(167,227,64);fill-rule:nonzero;"/>
                        <circle cx="39" cy="19" r="4" style="fill:rgb(242,246,252);"/>
                        <path d="M30.59,17C30.86,17.632 30.999,18.313 31,19C31,21.743 28.743,24 26,24C23.257,24 21,21.743 21,19C21.001,18.313 21.14,17.632 21.41,17L30.59,17Z" style="fill:rgb(205,210,225);fill-rule:nonzero;"/>
                        <path d="M21.41,19C21.273,19.325 21.17,19.664 21.103,20.01C21.58,22.325 23.637,24 26,24C28.363,24 30.42,22.325 30.897,20.01C30.83,19.664 30.727,19.325 30.59,19L21.41,19Z" style="fill:rgb(242,246,252);fill-rule:nonzero;"/>
                        <rect x="27" y="29" width="10" height="8" style="fill:rgb(159,114,252);"/>
                        <path d="M30,29L27,29L27,37L37,37L37,34L35,34C32.257,34 30,31.743 30,29Z" style="fill:rgb(132,87,229);fill-rule:nonzero;"/>
                        <path d="M47,22L47,33C47,35.194 45.194,37 43,37L41,37L41,28C41.021,28 41.042,28.001 41.063,28.001C42.674,28.001 44.001,26.674 44.001,25.063C44.001,25.042 44,25.021 44,25C44,24.979 43.999,24.958 43.999,24.937C43.999,23.326 45.326,21.999 46.937,21.999C46.958,21.999 46.979,22 47,22Z" style="fill:rgb(134,196,43);fill-rule:nonzero;"/>
                        <path d="M20,25C20,25.021 19.999,25.042 19.999,25.063C19.999,26.674 21.326,28.001 22.937,28.001C22.958,28.001 22.979,28 23,28L23,37L21,37C18.806,37 17,35.194 17,33L17,22C17.021,22 17.042,21.999 17.063,21.999C18.674,21.999 20.001,23.326 20.001,24.937C20.001,24.958 20,24.979 20,25Z" style="fill:rgb(134,196,43);fill-rule:nonzero;"/>
                        <path d="M21,1L28,1C28,12 17,12 17,12L17,5C17,2.806 18.806,1 21,1Z" style="fill:rgb(134,196,43);fill-rule:nonzero;"/>
                        <path d="M47,5L47,12C36,12 36,1 36,1L43,1C45.194,1 47,2.806 47,5Z" style="fill:rgb(167,227,64);fill-rule:nonzero;"/>
                        <path d="M20,25C20,24.979 20.001,24.958 20.001,24.937C20.001,23.326 18.674,21.999 17.063,21.999C17.042,21.999 17.021,22 17,22L17,12C17,12 28,12 28,1L36,1C36,1 36,12 47,12L47,22C46.979,22 46.958,21.999 46.937,21.999C45.326,21.999 43.999,23.326 43.999,24.937C43.999,24.958 44,24.979 44,25C44,25.021 44.001,25.042 44.001,25.063C44.001,26.674 42.674,28.001 41.063,28.001C41.042,28.001 41.021,28 41,28L41,39C40.997,40.096 40.096,40.997 39,41L25,41C23.904,40.997 23.003,40.096 23,39L23,28C22.979,28 22.958,28.001 22.937,28.001C21.326,28.001 19.999,26.674 19.999,25.063C19.999,25.042 20,25.021 20,25ZM30.59,17C29.793,15.181 27.986,13.999 26,13.999C24.014,13.999 22.207,15.181 21.41,17C21.14,17.632 21.001,18.313 21,19C21,21.743 23.257,24 26,24C28.743,24 31,21.743 31,19C30.999,18.313 30.86,17.632 30.59,17ZM43,19C43,16.806 41.194,15 39,15C36.806,15 35,16.806 35,19C35,21.194 36.806,23 39,23C41.194,23 43,21.194 43,19ZM37,37L37,29L27,29L27,37L37,37Z" style="fill:rgb(205,245,95);fill-rule:nonzero;"/>
                        <rect x="29" y="29" width="2" height="3" style="fill:rgb(242,246,252);"/>
                        <rect x="33" y="34" width="2" height="3" style="fill:rgb(242,246,252);"/>
                        <rect x="38" y="18" width="2" height="2" style="fill:rgb(126,133,150);"/>
                        <rect x="25" y="17" width="2" height="3" style="fill:rgb(126,133,150);"/>
                        <g transform="matrix(0.514499,-0.857491,0.857491,0.514499,7.292,25.879)">
                            <rect x="25.5" y="3.585" width="2" height="5.831" style="fill:rgb(126,133,150);"/>
                        </g>
                        <g transform="matrix(0.707107,-0.707107,0.707107,0.707107,-0.335,19.192)">
                            <rect x="22" y="7.172" width="2" height="5.657" style="fill:rgb(126,133,150);"/>
                        </g>
                        <rect x="47" y="10" width="3" height="2" style="fill:rgb(103,156,32);"/>
                        <g transform="matrix(0.707107,-0.707107,0.707107,0.707107,-26.062,19.08)">
                            <rect x="9" y="38.172" width="2" height="5.657" style="fill:rgb(150,104,87);"/>
                        </g>
                        <g transform="matrix(0.707107,-0.707107,0.707107,0.707107,-13.175,50.192)">
                            <rect x="51.172" y="40" width="5.657" height="2" style="fill:rgb(150,104,87);"/>
                        </g>
                        <rect x="39" y="54" width="2" height="4" style="fill:rgb(150,104,87);"/>
                        <rect x="43" y="54" width="2" height="4" style="fill:rgb(150,104,87);"/>
                        <rect x="34" y="59" width="4" height="2" style="fill:rgb(150,104,87);"/>
                        <rect x="46" y="59" width="4" height="2" style="fill:rgb(150,104,87);"/>
                        <rect x="12" y="56" width="2" height="4" style="fill:rgb(150,104,87);"/>
                        <path d="M61.988,39.848C61.961,39.68 61.893,39.521 61.788,39.386C56.035,31.986 50.264,30.426 47.998,30.093L47.998,25L48.998,25C50.644,25 51.998,23.646 51.998,22L51.998,16C51.998,15.451 51.547,15 50.998,15L48,15L48,12L50,12L50,10L48,10L48,5C47.996,4.273 47.832,3.556 47.519,2.9L48.707,1.712L47.293,0.293L46.307,1.279C45.4,0.46 44.222,0.004 43,0L21,0C18.258,0.003 16.003,2.258 16,5L16,15L13,15C12.451,15 12,15.451 12,16L12,22C12,23.646 13.354,25 15,25L16,25L16,30.093C13.734,30.426 7.963,31.993 2.21,39.386C2.105,39.521 2.037,39.68 2.01,39.848C0.859,47.516 0.187,55.248 -0,63C-0,63.549 0.451,64 1,64L63,64C63.549,64 64,63.549 64,63C63.812,55.248 63.14,47.516 61.988,39.848ZM48,17L50,17L50,22C50,22.549 49.549,23 49,23L48,23L48,17ZM59.436,39.678C58.323,40.307 57.287,41.066 56.351,41.937L55.414,41L56.707,39.707L55.293,38.293L54,39.586L53.414,39L56.108,36.306C57.311,37.333 58.425,38.461 59.436,39.678ZM43,2C44.646,2 46,3.354 46,5L46,10.962C38.792,10.451 37.356,4.435 37.071,2L43,2ZM18,5C18,3.354 19.354,2 21,2L26.962,2C26.894,3.094 26.658,4.172 26.262,5.194L24.515,4.143L23.485,5.857L25.324,6.957C24.785,7.725 24.122,8.398 23.36,8.946L21.707,7.293L20.293,8.707L21.559,9.973C20.426,10.464 19.227,10.786 18,10.928L18,5ZM18,12.926C19.752,12.732 21.457,12.233 23.038,11.452L24.293,12.707L25.707,11.293L24.781,10.367C25.663,9.708 26.431,8.908 27.055,8L28.485,8.857L29.515,7.143L28.015,6.243C28.576,4.895 28.899,3.459 28.968,2L35.074,2C35.388,4.777 37.066,12.435 46,12.968L46,33C46,34.646 44.646,36 43,36L42,36L42,28.874C43.805,28.492 45.082,26.844 45,25L43,25C43.003,25.04 43.004,25.08 43.004,25.12C43.004,26.153 42.153,27.004 41.12,27.004C41.08,27.004 41.04,27.003 41,27C40.451,27 40,27.451 40,28L40,39C40,39.549 39.549,40 39,40L25,40C24.451,40 24,39.549 24,39L24,28C23.996,27.455 23.551,27.008 23.007,27C22.965,27.003 22.923,27.004 22.881,27.004C21.847,27.004 20.996,26.153 20.996,25.119C20.996,25.079 20.997,25.04 21,25L19,25C18.918,26.844 20.195,28.492 22,28.874L22,36L21,36C19.354,36 18,34.646 18,33L18,12.926ZM36.894,42C36.59,44.41 34.422,46.182 32,46C29.578,46.182 27.41,44.41 27.106,42L36.894,42ZM15,23C14.451,23 14,22.549 14,22L14,17L16,17L16,23L15,23ZM7.892,36.306L10.586,39L10,39.586L8.707,38.293L7.293,39.707L8.586,41L7.649,41.937C6.713,41.066 5.677,40.307 4.564,39.678C5.575,38.461 6.689,37.333 7.892,36.306ZM8.006,62L2.006,62C2.214,55.153 2.809,48.324 3.787,41.544C5.618,42.625 8.947,45.106 9,48.908C8.308,53.237 7.975,57.616 8.006,62ZM16,62L10.007,62C10.016,60.939 10.038,59.939 10.072,59L12,59L12,60L14,60L14,59L16,59L16,62ZM47,59L46,59L46,61L47,61L47,62L37,62L37,61L38,61L38,59L37,59L37,57L39,57L39,58L41,58L41,57L43,57L43,58L45,58L45,57L47,57L47,59ZM49,62L49,61L50,61L50,59L49,59L49,56C49,55.451 48.549,55 48,55L45,55L45,54L43,54L43,55L41,55L41,54L39,54L39,55L36,55C35.451,55 35,55.451 35,56L35,59L34,59L34,61L35,61L35,62L18,62L18,58C18,57.451 17.549,57 17,57L14,57L14,56L12,56L12,57L10.161,57C10.273,54.386 10.546,51.781 10.98,49.2C10.994,49.134 11.001,49.067 11,49C10.983,46.967 10.278,44.999 9,43.418L10,42.418L11.293,43.711L12.707,42.297L11.414,41L12.707,39.707C13.095,39.319 13.095,38.681 12.707,38.293L9.485,35.071C11.422,33.636 13.643,32.633 16,32.129L16,33C16.003,35.742 18.258,37.997 21,38L22,38L22,39C22,40.646 23.354,42 25,42L25.074,42C25.399,45.512 28.478,48.179 32,48C35.522,48.179 38.601,45.512 38.926,42L39,42C40.646,42 42,40.646 42,39L42,38L43,38C45.742,37.997 47.997,35.742 48,33L48,32.129C50.357,32.633 52.578,33.636 54.515,35.071L51.293,38.293C50.905,38.681 50.905,39.319 51.293,39.707L52.586,41L51.293,42.293L52.707,43.707L54,42.414L55,43.414C53.721,44.996 53.016,46.966 53,49C52.999,49.067 53.006,49.134 53.02,49.2C53.7,53.432 54.025,57.714 53.993,62L49,62ZM55.994,62C56.025,57.616 55.692,53.237 55,48.908C55.054,45.122 58.382,42.634 60.214,41.547C61.192,48.326 61.786,55.154 61.994,62L55.994,62Z" style="fill-rule:nonzero;"/>
                        <path d="M37,28L27,28C26.451,28 26,28.451 26,29L26,37C26,37.549 26.451,38 27,38L37,38C37.549,38 38,37.549 38,37L38,29C38,28.451 37.549,28 37,28ZM36,36L35,36L35,34L33,34L33,36L28,36L28,30L29,30L29,32L31,32L31,30L36,30L36,36Z" style="fill-rule:nonzero;"/>
                        <path d="M32,19C32,15.708 29.292,13 26,13C22.708,13 20,15.708 20,19C20,22.292 22.708,25 26,25C29.29,24.997 31.997,22.29 32,19ZM28.618,16L23.382,16C24.865,14.673 27.135,14.673 28.618,16ZM22,19C22.004,18.662 22.052,18.326 22.142,18L25,18L25,20L27,20L27,18L29.858,18C29.948,18.326 29.996,18.662 30,19C30,21.194 28.194,23 26,23C23.806,23 22,21.194 22,19Z" style="fill-rule:nonzero;"/>
                        <path d="M39,14C36.257,14 34,16.257 34,19C34,21.743 36.257,24 39,24C41.743,24 44,21.743 44,19C43.997,16.258 41.742,14.003 39,14ZM39,22C37.354,22 36,20.646 36,19C36,17.354 37.354,16 39,16C40.646,16 42,17.354 42,19C42,20.646 40.646,22 39,22Z" style="fill-rule:nonzero;"/>
                        <rect x="38" y="18" width="2" height="2"/>
                    </g>
                </g>
            </g>
        </g>
    </g>
</svg>
