<?xml version="1.0" encoding="UTF-8" standalone="no" ?>
<!DOCTYPE svg PUBLIC "-//W3C//DTD SVG 1.1//EN" "http://www.w3.org/Graphics/SVG/1.1/DTD/svg11.dtd">
<svg xmlns="http://www.w3.org/2000/svg" xmlns:xlink="http://www.w3.org/1999/xlink" version="1.1" width="1080" height="1080" viewBox="0 0 1080 1080" xml:space="preserve">
<g transform="matrix(1 0 0 1 540 540)" id="f3985086-1299-4bc5-824f-80cf75115bcb"  >
<rect style="stroke: none; stroke-width: 1; stroke-dasharray: none; stroke-linecap: butt; stroke-dashoffset: 0; stroke-linejoin: miter; stroke-miterlimit: 4; fill: rgb(255,255,255); fill-rule: nonzero; opacity: 1; visibility: hidden;" vector-effect="non-scaling-stroke"  x="-540" y="-540" rx="0" ry="0" width="1080" height="1080" />
</g>
<g transform="matrix(1 0 0 1 540 540)" id="50b2a3fa-5045-43f3-af19-6e7dc0228486"  >
</g>
<g transform="matrix(45 0 0 45 540 540)"  >
<path style="stroke: none; stroke-width: 1; stroke-dasharray: none; stroke-linecap: butt; stroke-dashoffset: 0; stroke-linejoin: miter; stroke-miterlimit: 4; fill: rgb(0,0,0); fill-rule: nonzero; opacity: 1;"  transform=" translate(-12, -12)" d="M 2.06 7.61 C 1.81 8.56 2.37 9.530000000000001 3.3200000000000003 9.790000000000001 L 7.62 10.940000000000001 C 8.56 11.190000000000001 9.53 10.63 9.79 9.680000000000001 L 10.94 5.380000000000002 C 11.19 4.440000000000001 10.629999999999999 3.4700000000000015 9.68 3.2100000000000017 L 5.38 2.060000000000002 C 4.4399999999999995 1.8100000000000018 3.4699999999999998 2.370000000000002 3.21 3.320000000000002 L 2.06 7.620000000000002 Z M 12.98 7.87 C 12.646284526720338 8.488221010271383 12.661411364129684 9.236205342423718 13.019848900643956 9.840428618262061 C 13.378286437158227 10.444651894100403 14.027468151266525 10.81650197736353 14.73 10.82 L 20 10.82 C 20.70431579492721 10.820010004604825 21.35671877584952 10.449555764435114 21.71757753542576 9.844707275372658 C 22.078436295002007 9.239858786310203 22.094550002695236 8.48978789499365 21.76 7.869999999999999 L 19.130000000000003 3.04 C 18.779287182640132 2.3982871349522488 18.10629671230513 1.999153272423131 17.375000000000004 1.999153272423131 C 16.643703287694873 1.999153272423131 15.970712817359875 2.3982871349522488 15.620000000000003 3.04 L 12.990000000000002 7.87 Z M 5.86 13.27 C 6.027697313883382 13.09646368921762 6.258676067818254 12.998465843842649 6.5 12.998465843842649 C 6.741323932181747 12.998465843842649 6.972302686116619 13.09646368921762 7.140000000000001 13.27 L 7.890000000000001 14.04 C 8.035009547782815 14.185814860594423 8.225581983412402 14.277571959230892 8.43 14.299999999999999 L 9.49 14.419999999999998 C 9.99 14.479999999999999 10.34 14.939999999999998 10.290000000000001 15.439999999999998 L 10.16 16.519999999999996 C 10.14 16.719999999999995 10.19 16.939999999999998 10.3 17.119999999999997 L 10.860000000000001 18.04 C 11.13 18.47 11.000000000000002 19.04 10.580000000000002 19.3 L 9.680000000000001 19.88 C 9.505993695795311 19.993618719242424 9.37558066874972 20.162803186761032 9.310000000000002 20.36 L 8.950000000000003 21.38 C 8.874823123772954 21.609325738974942 8.710695256826918 21.798851564465526 8.494465272216962 21.906026426402637 C 8.278235287607005 22.013201288339744 8.028021424984981 22.029044841852457 7.8000000000000025 21.95 L 6.8000000000000025 21.59 C 6.606028763115086 21.520552102320757 6.39397123688492 21.520552102320757 6.200000000000003 21.59 L 5.200000000000003 21.95 C 4.971978575015025 22.029044841852457 4.721764712393 22.013201288339744 4.5055347277830435 21.906026426402637 C 4.289304743173087 21.798851564465526 4.1251768762270515 21.609325738974942 4.0500000000000025 21.38 L 3.6900000000000026 20.36 C 3.6244193312502855 20.162803186761032 3.4940063042046936 19.993618719242424 3.320000000000002 19.88 L 2.4200000000000026 19.3 C 2.002961334746252 19.02367443695261 1.8792440358254996 18.466946591809222 2.1400000000000023 18.04 L 2.7000000000000024 17.11 C 2.8100000000000023 16.939999999999998 2.8600000000000025 16.73 2.8400000000000025 16.52 L 2.7200000000000024 15.44 C 2.6600000000000024 14.94 3.0200000000000022 14.48 3.5200000000000022 14.42 L 4.570000000000002 14.3 C 4.7744180165876 14.277571959230894 4.964990452217187 14.185814860594425 5.110000000000002 14.040000000000001 L 5.860000000000002 13.270000000000001 Z M 18.52 13.71 C 18.352087576231714 13.294118043533292 17.948500149130766 13.021825205639482 17.5 13.021825205639482 C 17.051499850869234 13.021825205639482 16.647912423768286 13.294118043533292 16.48 13.71 L 16.02 14.950000000000001 C 15.83 15.450000000000001 15.45 15.830000000000002 14.95 16.02 L 13.709999999999999 16.48 C 13.29411804353329 16.647912423768286 13.02182520563948 17.051499850869234 13.02182520563948 17.5 C 13.02182520563948 17.948500149130766 13.29411804353329 18.352087576231714 13.709999999999999 18.52 L 14.95 18.98 C 15.45 19.17 15.83 19.55 16.02 20.05 L 16.48 21.29 C 16.830000000000002 22.24 18.18 22.24 18.52 21.29 L 18.98 20.05 C 19.17 19.55 19.55 19.17 20.05 18.98 L 21.29 18.52 C 21.70588195646671 18.352087576231714 21.978174794360516 17.948500149130766 21.978174794360516 17.5 C 21.978174794360516 17.051499850869234 21.70588195646671 16.647912423768286 21.29 16.48 L 20.05 16.02 C 19.553454262961115 15.837855426467534 19.162144573532466 15.446545737038885 18.98 14.95 L 18.52 13.709999999999999 Z" stroke-linecap="round" />
</g>
</svg>